<?xml version="1.0" encoding="utf-8"?>
<!-- Generator: Adobe Illustrator 23.0.6, SVG Export Plug-In . SVG Version: 6.00 Build 0)  -->
<svg version="1.1" id="Layer_1" xmlns="http://www.w3.org/2000/svg" xmlns:xlink="http://www.w3.org/1999/xlink" x="0px" y="0px"
	 viewBox="0 0 71 60" style="enable-background:new 0 0 71 60;" xml:space="preserve">
<style type="text/css">
	.st0{fill:#FFFFFF;}
	.st1{fill:#C10230;}
	.st2{fill:#00205C;}
</style>
<g id="normal_1_">
	<polygon class="st0" points="37.5,33.9 32.6,21.2 27.6,33.9 32.5,33.9 	"/>
	<path class="st1" d="M26.2,37.7h6.4H39l3.1,8.1c0,0,0.2,0.7,0,1.2c-0.4,0.7-0.8,0.8-1,0.8h10.1c-2.9,0-4.7-4.4-4.7-4.4L32.6,7.2
		L18.6,43.4c0,0-1.8,4.4-4.7,4.4H24c-0.1,0-0.5-0.1-1-0.8c-0.3-0.5-0.1-1.2-0.1-1.2L26.2,37.7z M32.6,21.2l4.8,12.7h-4.9h-4.9
		L32.6,21.2z"/>
	<polygon class="st2" points="47.1,17.1 50.1,17.1 50.1,2.3 32.6,2.3 15,2.3 15,17.1 18.1,17.1 8.4,42.9 2.3,42.9 2.3,57.7 
		29.2,57.7 29.2,47.8 24.4,47.8 24.4,52.8 7.4,52.8 7.4,47.6 11.5,47.6 25.2,12.2 20,12.2 20,7.2 32.6,7.2 45.1,7.2 45.1,12.2 
		39.9,12.2 53.7,47.6 57.7,47.6 57.7,52.8 40.7,52.8 40.7,47.8 35.9,47.8 35.9,57.7 62.8,57.7 62.8,42.9 56.8,42.9 	"/>
	<g>
		<path class="st0" d="M69.1,54.2c0.8,0,1.6,0.7,1.6,1.5c0,0.9-0.7,1.5-1.6,1.5c-0.8,0-1.6-0.7-1.6-1.5
			C67.6,54.9,68.3,54.2,69.1,54.2 M69.1,57.6c1,0,1.9-0.8,1.9-1.8c0-1-0.8-1.8-1.9-1.8c-1,0-1.9,0.8-1.9,1.8
			C67.3,56.8,68.1,57.6,69.1,57.6 M69.5,55.8c0.3,0,0.6-0.2,0.6-0.6c0-0.4-0.3-0.6-0.7-0.6h-0.9v2.1h0.3v-1h0.4l0.5,1H70L69.5,55.8z
			 M69.3,55c0.2,0,0.5,0,0.5,0.3c0,0.3-0.4,0.2-0.7,0.2h-0.3V55H69.3z"/>
		<path class="st0" d="M58.4,40.5l-7.9-21.1l2,0V-0.1H12.7v19.5h2L6.7,40.5H0v19.5h65.1V40.5H58.4z M23.1,47c0.4,0.7,0.8,0.8,1,0.8
			h0.1c0,0,0,0-0.1,0H13.9c2.9,0,4.7-4.4,4.7-4.4L32.6,7.2l14,36.2c0,0,1.8,4.4,4.7,4.4H41.1c0,0-0.1,0-0.1,0h0.1
			c0.1,0,0.5-0.1,1-0.8c0.3-0.5,0-1.2,0-1.2L39,37.7h-6.4h-6.4L23,45.8C23,45.8,22.8,46.5,23.1,47 M62.8,57.7H35.9v-9.9h4.8v5.1h17
			v-5.2h-4.1L39.9,12.2h5.2v-5H32.6H20v5h5.2L11.5,47.6H7.4v5.2h17v-5.1h4.8v9.9H2.3V42.9h6l9.7-25.8h-3V2.3h17.6h17.6v14.8h-3
			l9.7,25.8h6V57.7z"/>
	</g>
</g>
</svg>
